<svg xmlns="http://www.w3.org/2000/svg" width="65" height="51" fill="none"><path fill="#F8F9FB" d="M57.317 1.099c.435.064.85.098 1.256.202.183.047.358.11.521.205.265.152.4.38.419.686.024.396-.048.78-.139 1.16a21.376 21.376 0 0 1-.99 3.053c-.06.15-.134.295-.214.435-.222.39-.57.564-1.011.58-.344.012-.679-.047-1.014-.108a35.058 35.058 0 0 0-3.543-.431 67.486 67.486 0 0 0-2.776-.157c-.68-.024-1.36-.04-2.042-.05-.425-.007-.851-.03-1.277-.022-.766.014-1.532.029-2.298.053-.492.016-.984.056-1.477.07-.132.004-.178.06-.213.167-.12.364-.242.727-.364 1.09l-7.012 21.041c-1.698 5.094-3.397 10.188-5.098 15.28-.113.34-.21.684-.352 1.012-.287.665-.782 1.016-1.513 1.064-1.209.079-2.418.045-3.628.04-.465-.002-.936-.002-1.399-.082a1.676 1.676 0 0 1-.39-.117c-.33-.145-.512-.44-.476-.793.02-.193.054-.384.117-.572 1.074-3.212 2.142-6.425 3.212-9.638l9.16-27.508c.022-.063.041-.128.066-.204-.172-.07-.33-.007-.482.008-1.085.11-2.153.326-3.218.555a61.016 61.016 0 0 0-4.177 1.065c-1.438.417-2.867.862-4.262 1.409a1.743 1.743 0 0 1-.698.129.634.634 0 0 1-.566-.328c-.134-.226-.172-.478-.199-.73a8.12 8.12 0 0 1-.055-.737c-.009-.562-.08-1.124-.033-1.684.04-.475-.005-.953.077-1.425.066-.38.2-.72.496-.98.169-.15.369-.24.576-.318a61.63 61.63 0 0 1 6.747-2.082c1.446-.36 2.901-.67 4.368-.931a71.61 71.61 0 0 1 7.563-.943 76.496 76.496 0 0 1 2.368-.131c.62-.023 1.242-.03 1.863-.053.698-.026 1.397-.03 2.095-.014.782.017 1.565.028 2.347.065.722.033 1.444.065 2.165.111.746.049 1.492.111 2.236.183.863.083 1.724.182 2.586.278.22.024.437.063.678.097Z"/><path fill="#F8F9FB" fill-rule="evenodd" d="M49.15 27.172a4.402 4.402 0 0 0-.546.518s0-.002-.006-.01c.022-.225.098-.428.174-.63.029-.077.058-.154.083-.231.875-2.646 1.751-5.291 2.63-7.935.233-.703.469-1.406.704-2.108.285-.85.57-1.702.852-2.554.049-.147.1-.295.152-.442.129-.365.257-.73.344-1.108.095-.413.092-.818-.267-1.126a1.456 1.456 0 0 0-.635-.311c-.389-.09-.785-.112-1.18-.135l-.34-.022c-.39-.028-.779-.047-1.169-.067l-.333-.018-.247-.014c-.392-.023-.785-.046-1.18-.007-.723.073-1.226.439-1.476 1.119a61.94 61.94 0 0 0-.703 2.047l-3.443 10.324-5.26 15.766c-.422 1.262-.589 2.55-.408 3.872a6.146 6.146 0 0 0 1.05 2.736c.85 1.214 2.018 2.003 3.396 2.505 1.369.497 2.791.66 4.235.688.37.007.737-.014 1.106-.035l.22-.012a15.38 15.38 0 0 0 2.671-.389 16.648 16.648 0 0 0 5.215-2.205c1.7-1.087 3.17-2.432 4.464-3.971a22.702 22.702 0 0 0 2.389-3.462 25.441 25.441 0 0 0 1.92-4.25 24.41 24.41 0 0 0 .837-3.07c.188-.925.303-1.86.36-2.8a12.05 12.05 0 0 0-.022-1.734c-.09-1.097-.326-2.15-.842-3.13-.41-.776-.976-1.41-1.73-1.867-.893-.541-1.879-.732-2.905-.744a8.258 8.258 0 0 0-1.873.206c-1.484.326-2.86.925-4.175 1.672a23.685 23.685 0 0 0-3.895 2.79c-.055.049-.111.097-.167.144Zm7.664 3.541c.034-.473-.013-.93-.207-1.386a1.216 1.216 0 0 0-.842-.67c-.288-.07-.575-.057-.86-.024-.754.086-1.454.346-2.12.701-1.104.59-2.066 1.371-2.958 2.242-.444.434-.853.9-1.254 1.375a23.631 23.631 0 0 0-3.03 4.589 25.197 25.197 0 0 0-1.322 3.172 4.398 4.398 0 0 0-.266 1.37c-.026 1.476 1.022 2.52 2.424 2.6 1.113.062 2.164-.211 3.152-.711 1.076-.545 1.975-1.316 2.766-2.22 1.165-1.332 2.036-2.845 2.757-4.451.498-1.11.899-2.257 1.217-3.431.182-.672.331-1.352.434-2.041.055-.37.082-.742.109-1.115ZM7.749 16.858c-1.058.81-1.999 1.742-2.866 2.775a21.212 21.212 0 0 0-2.639 4.078 21.949 21.949 0 0 0-1.706 4.685c-.263 1.101-.445 2.217-.479 3.349-.036 1.19-.008 2.379.194 3.56.209 1.223.55 2.399 1.139 3.496a7.515 7.515 0 0 0 1.98 2.376c1.028.81 2.207 1.294 3.48 1.566.986.21 1.983.274 2.989.258.588-.009 1.173-.027 1.758-.08a16.724 16.724 0 0 0 3.058-.557 14.017 14.017 0 0 0 4.16-1.951c.228-.158.422-.342.566-.576.108-.174.197-.358.273-.548.406-1.03.746-2.082 1.054-3.145.063-.218.122-.443.113-.677-.018-.426-.29-.652-.71-.592-.189.028-.357.102-.52.199a14.21 14.21 0 0 1-3.415 1.454 15.584 15.584 0 0 1-3.59.594c-.658.03-1.31.015-1.955-.114-1.067-.212-1.991-.682-2.668-1.561-.63-.818-.883-1.768-.936-2.782-.025-.46.022-.916.094-1.37v-.006c.031-.193.031-.195.246-.164.631.093 1.266.155 1.905.156.391.001.782 0 1.174-.019a24.642 24.642 0 0 0 1.804-.145 21.94 21.94 0 0 0 3.94-.832 14.92 14.92 0 0 0 2.224-.884c.495-.247.974-.524 1.44-.822.958-.612 1.837-1.319 2.577-2.187 1.234-1.447 1.886-3.133 2.018-5.02.084-1.209-.043-2.392-.494-3.529a6.076 6.076 0 0 0-1.689-2.397c-.923-.797-2.009-1.26-3.194-1.506-1.024-.212-2.058-.235-3.099-.18-1.308.068-2.58.318-3.82.732-1.604.535-3.066 1.34-4.406 2.366Zm9.867 4.405c.025-.66-.15-1.26-.564-1.805a1.46 1.46 0 0 0-.061-.07l-.035-.039c-.468-.55-1.08-.785-1.784-.772-.579.01-1.118.198-1.624.476-.84.461-1.528 1.104-2.145 1.826-1.136 1.331-2.008 2.823-2.655 4.447-.092.23-.17.464-.248.698l-.11.325.049.02a.19.19 0 0 0 .052.018c.552.06 1.107.055 1.659.026.73-.04 1.454-.142 2.169-.3 1.128-.249 2.216-.601 3.2-1.224.61-.387 1.141-.855 1.516-1.484.393-.66.551-1.385.58-2.142Z" clip-rule="evenodd"/></svg>